<svg xmlns="http://www.w3.org/2000/svg" xmlns:xlink="http://www.w3.org/1999/xlink" width="500" zoomAndPan="magnify" viewBox="0 0 375 374.999991" height="500" preserveAspectRatio="xMidYMid meet" version="1.2"><defs><clipPath id="8a168bf6b6"><path d="M 112.5 127.6875 L 235 127.6875 L 235 247.6875 L 112.5 247.6875 Z M 112.5 127.6875 "/></clipPath><clipPath id="80477fb54a"><path d="M 141 167 L 262.5 167 L 262.5 235 L 141 235 Z M 141 167 "/></clipPath></defs><g id="f26d7eda6c"><rect x="0" width="375" y="0" height="374.999991" style="fill:#ffffff;fill-opacity:1;stroke:none;"/><rect x="0" width="375" y="0" height="374.999991" style="fill:#22002d;fill-opacity:1;stroke:none;"/><g clip-rule="nonzero" clip-path="url(#8a168bf6b6)"><path style=" stroke:none;fill-rule:nonzero;fill:#9900cc;fill-opacity:1;" d="M 174.945312 200.980469 L 135.402344 171.082031 L 135.402344 247.308594 L 112.644531 247.308594 L 112.644531 127.691406 L 150.425781 156.253906 L 150.429688 156.253906 L 174.945312 174.792969 L 234.964844 128.554688 L 234.964844 155.601562 L 192.261719 187.886719 L 187.011719 191.859375 Z M 212.140625 212.976562 L 212.207031 247.3125 L 234.964844 247.3125 L 234.898438 195.773438 Z M 212.140625 212.976562 "/></g><g clip-rule="nonzero" clip-path="url(#80477fb54a)"><path style=" stroke:none;fill-rule:nonzero;fill:#ffffff;fill-opacity:1;" d="M 227.714844 167.9375 L 174.945312 207.835938 L 141.226562 182.335938 L 141.226562 208.523438 L 174.945312 234.023438 L 262.351562 167.9375 Z M 227.714844 167.9375 "/></g></g></svg>