<?xml version="1.0" standalone="no"?>
<!DOCTYPE svg PUBLIC "-//W3C//DTD SVG 20010904//EN"
 "http://www.w3.org/TR/2001/REC-SVG-20010904/DTD/svg10.dtd">
<svg version="1.0" xmlns="http://www.w3.org/2000/svg"
 width="500.000000pt" height="500.000000pt" viewBox="0 0 500.000000 500.000000"
 preserveAspectRatio="xMidYMid meet">

<g transform="translate(0.000000,500.000000) scale(0.100000,-0.100000)"
fill="#000000" stroke="none">
<path d="M1500 2495 l0 -795 150 0 150 0 0 505 c0 278 3 505 8 505 4 0 122
-88 262 -195 140 -107 261 -193 267 -190 7 2 188 138 403 301 l390 297 0 180
c0 142 -3 177 -12 170 -286 -227 -784 -603 -793 -599 -7 2 -193 142 -414 310
-221 168 -404 306 -407 306 -2 0 -4 -358 -4 -795z"/>
<path d="M2978 2267 l-148 -112 0 -227 0 -228 150 0 150 0 0 340 c0 187 -1
340 -2 340 -2 0 -69 -51 -150 -113z"/>
</g>
</svg>
