<?xml version="1.0" encoding="UTF-8"?>
<svg xmlns="http://www.w3.org/2000/svg" xmlns:xlink="http://www.w3.org/1999/xlink" width="500" zoomAndPan="magnify" viewBox="0 0 375 374.999991" height="500" preserveAspectRatio="xMidYMid meet" version="1.2">
<defs>
<clipPath id="439291f91e">
<path d="M 45.351562 67.875 L 291 67.875 L 291 307.125 L 45.351562 307.125 Z M 45.351562 67.875 "/>
</clipPath>
<clipPath id="0e7c2a2c55">
<path d="M 102 148 L 345.351562 148 L 345.351562 281 L 102 281 Z M 102 148 "/>
</clipPath>
</defs>
<g id="c42cc8cd4c">
<rect x="0" width="375" y="0" height="374.999991" style="fill:#ffffff;fill-opacity:1;stroke:none;"/>
<rect x="0" width="375" y="0" height="374.999991" style="fill:#ffffff;fill-opacity:1;stroke:none;"/>
<g clip-rule="nonzero" clip-path="url(#439291f91e)">
<path style="stroke:none;fill-rule:nonzero;fill:#854BE5;fill-opacity:1;" d="M 170.246094 214.457031 L 91.160156 154.667969 L 91.160156 307.117188 L 45.640625 307.117188 L 45.640625 67.882812 L 121.203125 125.007812 L 121.210938 125.007812 L 170.246094 162.085938 L 290.285156 69.609375 L 290.285156 123.703125 L 204.878906 188.273438 L 194.378906 196.214844 Z M 244.636719 238.457031 L 244.769531 307.125 L 290.285156 307.125 L 290.152344 204.046875 Z M 244.636719 238.457031 "/>
</g>
<g clip-rule="nonzero" clip-path="url(#0e7c2a2c55)">
<path style="stroke:none;fill-rule:nonzero;fill:#854BE5;fill-opacity:1;" d="M 275.785156 148.371094 L 170.246094 228.167969 L 102.804688 177.175781 L 102.804688 229.550781 L 170.246094 280.542969 L 345.058594 148.371094 Z M 275.785156 148.371094 "/>
</g>
</g>
</svg>
