<?xml version="1.0" encoding="UTF-8"?>
<svg version="1.1" xmlns="http://www.w3.org/2000/svg" viewBox="0 0 500 500">
<path d="M0 0 C2.97773068 1.48886534 5.28245048 2.82546117 7.9140625 4.765625 C8.66558594 5.31863281 9.41710937 5.87164062 10.19140625 6.44140625 C10.99449219 7.03824219 11.79757813 7.63507813 12.625 8.25 C13.46675781 8.87261719 14.30851563 9.49523437 15.17578125 10.13671875 C21.59874487 14.90833746 27.92071631 19.80020934 34.21606445 24.73828125 C40.46241348 29.62227471 46.82712015 34.33177237 53.22412109 39.01586914 C57.89691467 42.44061033 62.53679625 45.90020262 67.125 49.4375 C68.13820313 50.21480469 69.15140625 50.99210937 70.1953125 51.79296875 C72.03193656 53.23822306 73.84106022 54.71929479 75.6171875 56.23828125 C76.40351563 56.90214844 77.18984375 57.56601563 78 58.25 C78.99 59.12398437 78.99 59.12398437 80 60.015625 C82.00591688 61.26317501 82.00591688 61.26317501 84.40234375 60.45703125 C87.4618347 58.74095588 89.91421039 56.73989056 92.5625 54.4375 C97.54887339 50.16943036 102.67740131 46.17458089 107.953125 42.265625 C111.60206997 39.55230695 115.2037139 36.78069175 118.80371094 34.00292969 C121.85324187 31.65094542 124.90703226 29.30485833 127.96875 26.96875 C128.65783447 26.44289307 129.34691895 25.91703613 130.05688477 25.37524414 C131.47884366 24.29056666 132.90120801 23.20642053 134.32397461 22.12280273 C138.21114994 19.1557568 142.07398504 16.16168289 145.91015625 13.12890625 C146.71880127 12.49178711 147.52744629 11.85466797 148.3605957 11.19824219 C149.91910627 9.96824979 151.4738284 8.73343728 153.02416992 7.49316406 C154.08728394 6.65543457 154.08728394 6.65543457 155.171875 5.80078125 C155.7915918 5.30747314 156.41130859 4.81416504 157.04980469 4.3059082 C159.26757529 2.82082371 161.49858936 1.91277177 164 1 C167.31379767 33.16204505 167.31379767 33.16204505 162.19677734 42.17675781 C157.52470059 47.20731351 151.81101778 50.41371973 145.74853516 53.52636719 C141.71968226 55.686445 138.2601712 58.4193904 134.6875 61.25 C133.39892935 62.22027121 132.10728541 63.18647529 130.8125 64.1484375 C128.2468249 66.06612191 125.68443711 67.98806038 123.125 69.9140625 C115.00007408 76.02568774 106.83868242 82.0854299 98.64526367 88.10498047 C93.74203558 91.70844974 88.86080652 95.33949481 84 99 C81.09829705 97.63653947 78.58836398 96.07360381 76.015625 94.1640625 C75.25330566 93.60041992 74.49098633 93.03677734 73.70556641 92.45605469 C72.89522949 91.85180664 72.08489258 91.24755859 71.25 90.625 C70.40743652 90.00012695 69.56487305 89.37525391 68.69677734 88.73144531 C66.12842935 86.82463418 63.56371899 84.91302889 61 83 C60.25975586 82.44860352 59.51951172 81.89720703 58.75683594 81.32910156 C56.71139106 79.8047288 54.6676234 78.27815099 52.625 76.75 C51.75536621 76.0995874 51.75536621 76.0995874 50.86816406 75.43603516 C44.5347409 70.67984093 38.27924919 65.83019168 32 61 C31.67 93.67 31.34 126.34 31 160 C20.77 160 10.54 160 0 160 C0 107.2 0 54.4 0 0 Z " fill="#9900CB" transform="translate(150,170)"/>
<path d="M0 0 C2.20955347 0.0452153 4.41919626 0.08626741 6.62890625 0.12304688 C12.00457565 0.22150283 17.3768648 0.37148236 22.75 0.5625 C22.75 1.5525 22.75 2.5425 22.75 3.5625 C20.6875 5.40234375 20.6875 5.40234375 17.75 7.5 C16.63633332 8.30675989 15.52307239 9.11408007 14.41015625 9.921875 C13.81348145 10.35048828 13.21680664 10.77910156 12.60205078 11.22070312 C9.43010774 13.51875202 6.31357559 15.89016901 3.1875 18.25 C-2.74187435 22.70651805 -8.70814663 27.11085502 -14.6875 31.5 C-20.70924881 35.92474736 -26.69452717 40.39108576 -32.625 44.9375 C-33.29724609 45.4526416 -33.96949219 45.9677832 -34.66210938 46.49853516 C-37.77859454 48.88993369 -40.8916365 51.28569553 -44.00048828 53.68701172 C-46.89306065 55.92039407 -49.79011208 58.14787021 -52.6875 60.375 C-53.60644043 61.08769043 -54.52538086 61.80038086 -55.47216797 62.53466797 C-56.32568848 63.18967285 -57.17920898 63.84467773 -58.05859375 64.51953125 C-59.20026001 65.40088745 -59.20026001 65.40088745 -60.36499023 66.30004883 C-62.25 67.5625 -62.25 67.5625 -64.25 67.5625 C-64.745 69.0475 -64.745 69.0475 -65.25 70.5625 C-66.6418457 71.86181641 -66.6418457 71.86181641 -68.42578125 73.1640625 C-69.08384766 73.65036133 -69.74191406 74.13666016 -70.41992188 74.63769531 C-71.12697266 75.14913086 -71.83402344 75.66056641 -72.5625 76.1875 C-74.01697995 77.25774065 -75.47140647 78.32805393 -76.92578125 79.3984375 C-77.6523291 79.92920898 -78.37887695 80.45998047 -79.12744141 81.00683594 C-82.18767862 83.24974271 -85.21925854 85.5299918 -88.25 87.8125 C-89.91666667 89.0625 -91.58333333 90.3125 -93.25 91.5625 C-95.98482548 90.2690319 -98.37436636 88.84292931 -100.7890625 87.0234375 C-101.77519531 86.28287109 -101.77519531 86.28287109 -102.78125 85.52734375 C-103.4721875 85.00269531 -104.163125 84.47804688 -104.875 83.9375 C-105.59429687 83.39480469 -106.31359375 82.85210937 -107.0546875 82.29296875 C-111.63238403 78.82676329 -116.19950621 75.35580127 -120.5234375 71.57421875 C-122.87943021 69.83591468 -124.76713276 68.85230335 -127.4140625 67.70703125 C-132.56635819 65.17374401 -136.60114114 62.82809365 -139.25 57.5625 C-141.83166396 45.70587324 -140.19941319 32.55066735 -139.25 20.5625 C-135.90405173 21.78432289 -133.26824125 23.1010917 -130.4921875 25.328125 C-129.79303223 25.88209961 -129.09387695 26.43607422 -128.37353516 27.00683594 C-127.63151855 27.60270508 -126.88950195 28.19857422 -126.125 28.8125 C-119.45159348 34.08644293 -112.71830352 39.26057471 -105.875 44.3125 C-105.07304199 44.90836914 -104.27108398 45.50423828 -103.44482422 46.11816406 C-102.69217285 46.67213867 -101.93952148 47.22611328 -101.1640625 47.796875 C-100.5035791 48.28381836 -99.8430957 48.77076172 -99.16259766 49.27246094 C-97.25504667 50.55909604 -95.32935416 51.5826875 -93.25 52.5625 C-92.80422607 52.21171387 -92.35845215 51.86092773 -91.89916992 51.49951172 C-82.54410197 44.15020652 -73.11373171 36.92706006 -63.51611328 29.8972168 C-56.01045427 24.39884949 -48.56631744 18.82065421 -41.12890625 13.23046875 C-39.93370361 12.36578979 -39.93370361 12.36578979 -38.71435547 11.48364258 C-36.16665693 9.5810452 -36.16665693 9.5810452 -33.83642578 7.1315918 C-23.93326451 -2.08387511 -12.77875917 -0.45590637 0 0 Z " fill="#FEFEFE" transform="translate(327.25,222.4375)"/>
<path d="M0 0 C0 23.1 0 46.2 0 70 C-10.56 70 -21.12 70 -32 70 C-32.30000236 63.48200008 -32.55794868 56.98818028 -32.71411133 50.46875 C-32.77920132 48.2566594 -32.86771192 46.04512209 -32.98071289 43.83496094 C-33.86939258 25.99702839 -33.86939258 25.99702839 -30.7868042 21.05499268 C-27.41070064 17.42642169 -23.36698423 15.29798986 -19 13 C-16.76955988 11.44628121 -14.64745606 9.7950688 -12.5 8.125 C-11.5615625 7.42632812 -10.623125 6.72765625 -9.65625 6.0078125 C-7.83156504 4.62856534 -6.0408963 3.20350296 -4.28125 1.7421875 C-2 0 -2 0 0 0 Z " fill="#9800CB" transform="translate(314,260)"/>
</svg>
